<?xml version="1.0" standalone="no"?>
<!DOCTYPE svg PUBLIC "-//W3C//DTD SVG 20010904//EN"
 "http://www.w3.org/TR/2001/REC-SVG-20010904/DTD/svg10.dtd">
<svg version="1.0" xmlns="http://www.w3.org/2000/svg"
 width="2000.000000pt" height="2000.000000pt" viewBox="0 0 2000.000000 2000.000000"
 preserveAspectRatio="xMidYMid meet">

<g transform="translate(0.000000,2000.000000) scale(0.100000,-0.100000)"
fill="#000000" stroke="none">
<path d="M8833 14760 c-18 -10 -39 -33 -48 -51 -20 -38 -22 -111 -3 -138 7
-10 202 -216 433 -456 231 -240 420 -441 420 -445 0 -4 -54 -46 -120 -94 -165
-117 -356 -267 -508 -397 -70 -60 -133 -109 -141 -109 -7 0 -134 38 -281 85
-148 47 -276 85 -285 85 -24 0 -40 -21 -40 -52 0 -22 33 -63 170 -205 l170
-178 -35 -32 c-63 -57 -37 -132 42 -120 21 3 45 8 54 11 13 6 26 -32 80 -226
61 -222 80 -268 112 -268 37 0 48 29 115 314 l69 290 169 56 c213 72 375 134
582 222 90 39 165 68 166 66 1 -1 69 -246 151 -543 191 -699 178 -659 220
-691 27 -20 46 -26 86 -26 57 0 93 20 121 68 9 16 107 414 218 884 111 470
202 855 203 856 1 0 127 78 279 173 292 182 356 230 407 310 48 74 101 214
101 264 0 51 -30 102 -75 129 -41 23 -216 51 -290 45 -93 -7 -161 -35 -462
-192 -155 -80 -287 -145 -294 -145 -7 0 -126 36 -263 80 -1207 383 -1424 450
-1456 450 -19 0 -49 -9 -67 -20z"/>
<path d="M8420 12629 c-71 -39 -637 -324 -755 -379 -238 -113 -294 -138 -485
-222 -454 -199 -743 -308 -1225 -462 -328 -105 -723 -153 -918 -111 -79 16
-170 62 -232 117 -169 149 -126 341 134 598 117 117 314 269 490 379 63 39
111 71 107 71 -17 0 -429 -212 -536 -275 -278 -164 -487 -322 -641 -482 -112
-117 -180 -216 -223 -322 -26 -66 -30 -89 -31 -176 0 -122 16 -176 86 -280
307 -458 994 -413 2099 137 560 279 1245 715 1940 1236 135 101 249 188 255
193 19 18 -11 8 -65 -22z"/>
<path d="M13220 10880 c-30 -11 -78 -39 -107 -62 -29 -24 -215 -229 -413 -455
-198 -227 -363 -413 -365 -413 -3 0 -103 76 -223 168 -268 206 -289 217 -437
217 -186 0 -129 42 -897 -658 -114 -104 -209 -189 -212 -190 -3 -1 -91 69
-195 156 -224 186 -270 211 -381 211 -59 0 -87 -5 -130 -25 -31 -14 -177 -116
-325 -226 -149 -110 -275 -202 -281 -206 -7 -4 -36 35 -75 105 -101 176 -170
238 -298 268 -89 21 -156 7 -446 -90 -148 -49 -275 -90 -281 -90 -6 0 -150
241 -320 536 -220 382 -323 550 -356 586 -110 114 -295 146 -437 74 -45 -24
-461 -370 -461 -385 0 -4 27 -40 61 -80 33 -39 331 -464 662 -944 1693 -2459
1934 -2807 1979 -2864 181 -229 458 -362 755 -363 277 0 555 124 727 325 58
68 388 556 1381 2040 910 1359 1198 1784 1285 1895 50 63 124 165 166 225 l75
110 -33 29 c-54 46 -130 92 -181 110 -65 22 -169 20 -237 -4z m-1392 -1419
c60 -32 82 -143 42 -208 -30 -49 -73 -67 -157 -64 -43 1 -99 52 -114 101 -41
135 101 240 229 171z m-1833 -1681 c27 -27 28 -100 1 -129 -40 -44 -123 -44
-158 0 -22 27 -24 97 -3 127 32 44 116 45 160 2z"/>
<path d="M3209 4168 c-161 -233 -301 -435 -311 -450 l-19 -28 129 0 129 0 58
90 57 90 191 -2 192 -3 14 -87 14 -88 128 0 c107 0 129 3 129 15 0 16 -158
839 -166 868 -5 15 -20 17 -129 17 l-124 0 -292 -422z m394 -110 c-2 -5 -54
-8 -115 -8 -90 0 -109 3 -105 14 3 8 45 74 93 147 l88 134 21 -140 c12 -77 20
-143 18 -147z"/>
<path d="M4116 4153 c-60 -241 -111 -444 -114 -451 -3 -10 23 -12 124 -10
l128 3 112 448 112 447 -127 0 -126 0 -109 -437z"/>
<path d="M4927 4490 l-25 -100 140 0 c128 0 139 -1 134 -17 -13 -43 -166 -664
-166 -673 0 -6 46 -10 124 -10 l124 0 87 350 87 350 138 0 138 0 25 100 25
100 -403 0 -403 0 -25 -100z"/>
<path d="M5855 4578 c-2 -7 -54 -210 -113 -450 l-110 -438 127 0 127 0 29 120
29 120 71 0 71 0 49 -112 c26 -62 51 -117 55 -121 4 -4 66 -6 138 -5 l131 3
-54 123 c-73 166 -71 154 -27 177 65 34 147 121 176 185 78 174 47 304 -91
372 l-67 33 -268 3 c-216 3 -269 1 -273 -10z m434 -203 c34 -17 41 -33 41 -89
0 -48 -27 -96 -73 -130 -24 -18 -46 -22 -143 -24 -82 -3 -114 0 -114 8 0 10
21 100 51 213 l10 37 100 0 c68 0 109 -5 128 -15z"/>
<path d="M6809 4168 c-161 -233 -301 -435 -311 -450 l-19 -28 129 0 129 0 58
90 57 90 191 -2 192 -3 14 -87 14 -88 128 0 c107 0 129 3 129 15 0 16 -158
839 -166 868 -5 15 -20 17 -129 17 l-124 0 -292 -422z m394 -110 c-2 -5 -54
-8 -115 -8 -90 0 -109 3 -105 14 3 8 45 74 93 147 l88 134 21 -140 c12 -77 20
-143 18 -147z"/>
<path d="M7670 4578 c1 -7 36 -209 78 -448 l78 -435 124 -3 125 -3 300 442
c165 243 302 446 303 450 2 5 -52 9 -120 9 l-123 0 -195 -290 c-107 -159 -198
-286 -201 -282 -3 4 -25 124 -48 267 -24 143 -45 270 -48 283 -5 21 -8 22
-139 22 -101 0 -134 -3 -134 -12z"/>
<path d="M8636 4153 c-60 -241 -111 -444 -114 -451 -3 -10 70 -12 359 -10
l363 3 23 90 c12 50 23 93 23 98 0 4 -106 7 -236 7 -219 0 -235 1 -230 18 3 9
10 37 16 62 6 25 13 53 16 63 5 15 23 17 204 17 l199 0 10 38 c5 20 16 63 24
95 l15 57 -199 0 c-109 0 -199 3 -199 8 0 4 9 39 18 77 l18 70 229 5 229 5 17
70 c10 39 21 80 24 93 l5 22 -352 0 -353 0 -109 -437z"/>
<path d="M9501 4145 c-61 -245 -111 -447 -111 -450 0 -3 153 -5 340 -5 l339 0
11 40 c5 22 15 59 21 83 5 23 12 50 15 60 5 16 -10 17 -211 17 -201 0 -216 1
-211 18 13 42 166 663 166 672 0 6 -46 10 -124 10 l-124 0 -111 -445z"/>
<path d="M10666 4153 c-60 -241 -111 -444 -114 -451 -3 -10 23 -12 124 -10
l128 3 29 118 29 117 119 0 c65 0 142 5 171 11 136 28 264 123 320 236 42 87
52 207 20 269 -27 52 -66 88 -127 116 -48 22 -63 23 -320 26 l-270 3 -109
-438z m554 210 c30 -25 32 -30 28 -78 -5 -63 -35 -108 -88 -135 -32 -16 -59
-20 -144 -20 l-104 0 29 118 c17 64 32 123 34 130 3 8 34 12 109 12 99 0 106
-1 136 -27z"/>
<path d="M11601 4145 c-61 -245 -111 -447 -111 -450 0 -3 153 -5 340 -5 l339
0 11 40 c5 22 15 59 21 83 5 23 12 50 15 60 5 16 -10 17 -211 17 -201 0 -216
1 -211 18 13 42 166 663 166 672 0 6 -46 10 -124 10 l-124 0 -111 -445z"/>
<path d="M12490 4149 c-168 -243 -306 -446 -308 -450 -2 -5 53 -9 122 -9 l125
0 61 90 61 90 188 0 189 0 6 -27 c3 -16 8 -48 11 -73 12 -86 1 -80 146 -80
l131 0 -6 28 c-13 59 -166 857 -166 864 0 4 -57 8 -127 8 l-128 0 -305 -441z
m391 47 c11 -76 19 -140 16 -142 -2 -3 -55 -3 -116 -2 l-112 3 92 142 c51 78
94 141 96 139 2 -1 12 -65 24 -140z"/>
<path d="M13411 4145 c-61 -244 -111 -447 -111 -450 0 -3 55 -5 123 -5 l122 0
61 242 60 242 139 -242 140 -242 104 2 105 3 112 448 112 447 -124 0 -124 0
-7 -27 c-3 -16 -30 -120 -58 -233 -28 -113 -55 -203 -61 -200 -5 2 -68 106
-139 230 l-131 225 -106 3 -105 3 -112 -446z"/>
<path d="M14451 4145 c-61 -244 -111 -447 -111 -450 0 -3 55 -5 123 -5 l122 0
61 242 60 242 139 -242 140 -242 104 2 105 3 112 448 112 447 -124 0 -124 0
-7 -27 c-3 -16 -30 -120 -58 -233 -28 -113 -55 -203 -61 -200 -5 2 -68 106
-139 230 l-131 225 -106 3 -105 3 -112 -446z"/>
<path d="M15591 4553 c-33 -125 -211 -844 -211 -853 0 -7 122 -10 359 -10
l359 0 21 85 c11 46 21 91 21 100 0 13 -30 15 -230 15 -126 0 -230 3 -230 8 0
4 7 40 17 79 l17 73 200 2 201 3 17 62 c9 35 19 76 23 93 l7 30 -196 0 c-223
0 -206 -9 -180 95 l16 65 228 0 228 0 21 85 c11 46 21 89 21 95 0 7 -115 10
-350 10 l-349 0 -10 -37z"/>
<path d="M16465 4578 c-2 -7 -54 -210 -113 -450 l-110 -438 127 0 127 0 29
120 29 120 71 0 71 0 49 -112 c26 -62 51 -117 55 -121 4 -4 66 -6 138 -5 l131
3 -54 123 c-73 166 -71 154 -27 177 65 34 147 121 176 185 78 174 47 304 -91
372 l-67 33 -268 3 c-216 3 -269 1 -273 -10z m434 -203 c34 -17 41 -33 41 -89
0 -48 -27 -96 -73 -130 -24 -18 -46 -22 -143 -24 -82 -3 -114 0 -114 8 0 10
21 100 51 213 l10 37 100 0 c68 0 109 -5 128 -15z"/>
</g>
</svg>
